<?xml version="1.0" encoding="utf-8"?>
<svg version="1.1" id="Layer_1" xmlns="http://www.w3.org/2000/svg" xmlns:xlink="http://www.w3.org/1999/xlink" x="0px" y="0px"
	 viewBox="0 0 1024 1024" style="enable-background:new 0 0 1024 1024;" xml:space="preserve">
<style type="text/css">
	.st0{fill:none;}
</style>
<path class="st0" d="M512,818.4C352,716.2,192.1,614,31.7,511.5c2-1.4,3.3-2.3,4.6-3.2c157-100.3,314.1-200.6,471-301.1
	c3.7-2.4,6.1-2,9.6,0.2C673.6,307.7,830.3,407.8,987.1,508c1.5,1,3,2,5.3,3.5C831.9,614,672,716.1,512,818.4z"/>
<path d="M1018.4,507.7C851.3,401,684.2,294.2,517.2,187.3c-3.7-2.4-6.2-2.8-10.2-0.2c-167.3,107.1-334.7,214-502.1,321
	c-1.4,0.9-2.8,2-4.9,3.4c171,109.2,341.4,218.1,512,327.1c170.6-109,341.1-217.9,512-327.2C1021.6,509.8,1020,508.8,1018.4,507.7z
	 M404.8,699h-90.7V324.9h90.7V699z M651.1,554.1c-1.8,2.8-3.8,3.6-7,3.5c-26.6-0.1-53.3-0.1-79.9-0.1h-6.3V699h-91.1V324.5h5.7
	c57,0,114,0,171-0.1c3.8,0,6.1,1.1,8.2,4.3c8.2,12.4,16.6,24.7,25.2,36.9c2.1,3,2,5.2-0.1,8.1c-9,12.9-17.7,26.1-26.8,39
	c-1.2,1.7-4.3,3-6.5,3c-26.5,0.2-52.9,0.1-79.4,0.1h-6v50.4h5.9c26.5,0,52.9,0.1,79.4-0.1c3.4,0,5.4,1,7.3,3.9
	c8.5,12.8,17.2,25.6,26.1,38.2c2.2,3.2,2.1,5.4-0.1,8.5C667.9,529.1,659.4,541.5,651.1,554.1z M739.2,514.6
	c-8.9,13.5-18,26.8-27.2,40c-0.8,1.2-2.3,2.7-3.5,2.8c-9.7,0.2-19.4,0.1-30.3,0.1c10.7-15.7,20.7-30.5,31-45.5
	c-10.1-14.8-20.2-29.7-31-45.6c10.9,0,20.6-0.1,30.2,0.1c1.2,0,2.7,1.5,3.5,2.7c9.2,13.3,18.3,26.6,27.2,40
	C740,510.4,740,513.3,739.2,514.6z M738.8,373.7c-9,12.8-17.6,25.8-26.6,38.5c-1.3,1.8-4.2,3.2-6.4,3.3c-9,0.4-17.9,0.2-28.5,0.2
	c11-16.3,21.2-31.3,31.7-46.7c-9.9-14.6-19.7-28.9-30.3-44.5c6.6,0,3.6,0.2,17.7-0.1s13.5-0.6,21.3,11.1
	c7.8,11.7,13.7,20.7,20.9,30.8C740.5,369,740.8,370.8,738.8,373.7z"/>
</svg>
