<?xml version="1.0" encoding="utf-8"?>
<svg version="1.1" id="Layer_1" xmlns="http://www.w3.org/2000/svg" xmlns:xlink="http://www.w3.org/1999/xlink" x="0px" y="0px"
	 viewBox="0 0 1024 1024" style="enable-background:new 0 0 1024 1024;" xml:space="preserve">
<g>
	<g>
		<path d="M24,989.3V185.5C24,103.5,90.5,37,172.5,37H321v952.2L24,989.3L24,989.3z"/>
	</g>
	<g>
		<g>
			<path d="M843.3,519.6l-96.9,148.5h-67.6l-145.4,158L381.7,991V519.6c0-82,66.5-148.5,148.5-148.5h216.2L843.3,519.6z"/>
		</g>
		<g>
			<g>
				<polygon points="1000.2,182 903.3,330.6 807.6,330.6 904.5,182 807.6,33.5 903.3,33.5 				"/>
			</g>
			<g>
				<polygon points="1000.2,519.9 903.3,668.4 807.6,668.4 904.5,519.9 807.6,371.4 903.3,371.4 				"/>
			</g>
			<g>
				<path d="M843.3,182l-96.9,148.5H381.7V182c0-82,66.5-148.5,148.5-148.5h216.2L843.3,182z"/>
			</g>
		</g>
	</g>
</g>
</svg>
